<svg id="_x33_0" enable-background="new 0 0 64 64" height="512" viewBox="0 0 64 64" width="512" xmlns="http://www.w3.org/2000/svg"><g><path d="m50 29c-1.654 0-3 1.346-3 3s1.346 3 3 3 3-1.346 3-3-1.346-3-3-3zm0 4c-.552 0-1-.449-1-1s.448-1 1-1 1 .449 1 1-.448 1-1 1z"/><path d="m50 25c-3.859 0-7 3.14-7 7 0 3.859 3.141 7 7 7s7-3.141 7-7c0-3.86-3.141-7-7-7zm0 12c-2.757 0-5-2.243-5-5s2.243-5 5-5 5 2.243 5 5-2.243 5-5 5z"/><path d="m63.887 57-10.887-6.805v2.805h-14.532c2.265-2.864 3.748-6.245 4.29-9.857l.173.173 1.773-1.781c.388-.39.967-.504 1.474-.293.5.208.822.692.822 1.233v2.525h6v-2.572c0-.513.306-.971.777-1.168.535-.223 1.145-.101 1.551.308l1.74 1.749 4.248-4.248-1.748-1.74c-.41-.407-.531-1.017-.309-1.551.199-.473.657-.778 1.169-.778h2.572v-6h-2.522c-.542 0-1.028-.324-1.237-.824-.211-.506-.096-1.082.292-1.469l1.78-1.771-.777-.785c.302-1.358.464-2.75.464-4.151 0-10.477-8.523-19-19-19-9.573 0-17.493 7.124-18.792 16.344l-2.261 1.695c-11.211.553-19.947 9.688-19.947 20.961 0 11.579 9.421 21 21 21h31v2.805zm-3.409-26h.522v2h-.572c-1.32 0-2.504.788-3.014 2.007v.001c-.536 1.287-.245 2.755.743 3.738l.327.326-1.412 1.412-.326-.328c-.984-.986-2.452-1.28-3.738-.742-1.22.509-2.008 1.691-2.008 3.014v.572h-2v-.525c0-1.351-.806-2.56-2.052-3.078-1.258-.524-2.697-.241-3.661.728l-.359.36-1.412-1.412.363-.361c.966-.963 1.252-2.397.727-3.657-.522-1.248-1.732-2.055-3.084-2.055h-.522v-2h.572c1.321 0 2.504-.788 3.014-2.008.536-1.286.245-2.753-.743-3.738l-.327-.326 1.413-1.413.325.327c.983.988 2.451 1.278 3.739.743 1.219-.508 2.007-1.691 2.007-3.012v-.573h2v.505c0 1.362.813 2.582 2.068 3.105 1.247.525 2.645.269 3.607-.702l.375-.436 1.438 1.452-.366.365c-.967.962-1.253 2.397-.728 3.657.522 1.248 1.732 2.054 3.084 2.054zm-31.471-10.789c-.001-.071-.007-.14-.007-.211 0-7.168 5.832-13 13-13s13 5.832 13 13c0 .961-.126 1.911-.334 2.841-.26.06-.545.044-.826-.075-.51-.213-.84-.708-.84-1.261v-2.505h-6v2.573c0 .512-.306.97-.777 1.167-.533.223-1.144.102-1.552-.308l-1.74-1.747-4.247 4.248 1.748 1.739c.41.408.531 1.017.309 1.55-.16.383-.493.646-.885.737-2.538-4.096-6.391-7.165-10.849-8.748zm12.993-17.211c9.374 0 17 7.626 17 17 0 .812-.064 1.62-.178 2.419l-1.84-1.859c.007-.186.018-.373.018-.56 0-8.271-6.729-15-15-15-8.141 0-14.772 6.522-14.98 14.613-.651-.161-1.311-.296-1.98-.393.411-9.011 7.849-16.22 16.96-16.22zm-18.099 18.094c5.461.542 10.417 3.46 13.583 7.906h-.484v6h2.522c.542 0 1.028.324 1.237.824.211.506.096 1.082-.292 1.469l-1.784 1.775 2.255 2.255c-.302 4.379-2.102 8.478-5.11 11.676h-6.377c4.504-2.59 7.549-7.441 7.549-12.999 0-7.416-5.528-13.799-12.858-14.848l-1.142-.164v2.208l-5.233-3.271 5.233-3.925v1.004zm7.04 19.906c-.463 4.165-3.776 7.478-7.941 7.941v-1.941h-2v1.941c-4.165-.463-7.478-3.776-7.941-7.941h1.941v-2h-1.941c.463-4.165 3.776-7.478 7.941-7.941v1.941h2v-1.941c4.165.463 7.478 3.776 7.941 7.941h-1.941v2zm-8.941-12c-6.065 0-11 4.935-11 11s4.935 11 11 11 11-4.935 11-11c0-5.024-3.39-9.263-8-10.574v-2.078c5.775 1.369 10 6.616 10 12.652 0 7.168-5.832 13-13 13s-13-5.832-13-13c0-6.191 4.329-11.485 10.347-12.729l2.776 1.735c-.041 0-.081-.006-.123-.006zm0 30c-10.477 0-19-8.523-19-19 0-9.04 6.207-16.566 14.68-18.51l-3.446 2.585 2.814 1.759c-5.943 2.064-10.048 7.689-10.048 14.166 0 8.271 6.729 15 15 15h33v-1.195l5.113 3.195-5.113 3.195v-1.195z"/><path d="m22 38.586-3.293-3.293-1.414 1.414 4.707 4.707 2.707-2.707-1.414-1.414z"/><path d="m35 13h2v2h-2z"/><path d="m39 13h2v2h-2z"/><path d="m43 13h2v2h-2z"/><path d="m47 13h2v2h-2z"/></g></svg>